<svg xmlns="http://www.w3.org/2000/svg" viewBox="0 0 2000 2000"><defs><style>.cls-1{fill:#fff;}</style></defs><title>Isotipo Afordin</title><g id="Capa_4" data-name="Capa 4"><path class="cls-1" d="M1246.12,789.63A186.73,186.73,0,0,0,894.21,789L739.49,1222.34H963.9l104.74-338.69L1205.24,1344l64,188.77a320.45,320.45,0,0,0,306.1,225.35h12.51Zm-599.4,692.66H881.61L926.3,1344l23.75-76.87H723.49Zm-98.46,275.86H559a320.69,320.69,0,0,0,303.78-218l2.51-7.4,1.84-5.69H630.72Z"/><path class="cls-1" d="M1068,528.69h0A143.42,143.42,0,0,0,924.62,385.27h0A143.42,143.42,0,0,0,1068,241.85h0a143.42,143.42,0,0,0,143.41,143.42h0A143.42,143.42,0,0,0,1068,528.69Z"/><path class="cls-1" d="M1068.06,1267.16c0,107.39-77.4,196.67-179.46,215.13H412.14a215.16,215.16,0,0,1,215.13-215.13Z"/></g></svg>